<svg xmlns="http://www.w3.org/2000/svg" viewBox="0 0 1600 900" role="img" aria-labelledby="title desc">
  <title>La primera transmisión</title>
  <desc>Una ciudad percibe una señal a las 04:04.</desc>
  <defs>
    <linearGradient id="bg" x1="0" y1="0" x2="1" y2="1">
      <stop offset="0%" stop-color="#05070a"/>
      <stop offset="55%" stop-color="#0a1318"/>
      <stop offset="100%" stop-color="#160d16"/>
    </linearGradient>
    <radialGradient id="orb" cx="50%" cy="42%" r="42%">
      <stop offset="0%" stop-color="#d6b36a" stop-opacity=".95"/>
      <stop offset="38%" stop-color="#8dd6d7" stop-opacity=".45"/>
      <stop offset="100%" stop-color="#000000" stop-opacity="0"/>
    </radialGradient>
    <filter id="blur"><feGaussianBlur stdDeviation="18"/></filter>
  </defs>
  <rect width="1600" height="900" fill="url(#bg)"/>
  <g opacity=".25">
    <circle cx="280" cy="120" r="2" fill="#fff"/><circle cx="390" cy="210" r="2" fill="#fff"/><circle cx="1320" cy="220" r="3" fill="#fff"/><circle cx="1240" cy="90" r="2" fill="#fff"/><circle cx="1120" cy="160" r="2" fill="#fff"/><circle cx="980" cy="100" r="2" fill="#fff"/><circle cx="150" cy="340" r="2" fill="#fff"/><circle cx="1450" cy="380" r="2" fill="#fff"/>
  </g>
  <circle cx="820" cy="320" r="245" fill="url(#orb)"/>
  <g filter="url(#blur)" opacity=".4"><ellipse cx="680" cy="700" rx="420" ry="120" fill="#7f6db6" opacity=".18"/><ellipse cx="980" cy="700" rx="360" ry="100" fill="#d6b36a" opacity=".12"/></g>
  <path d="M180 650 L470 420 L720 560 L980 300 L1330 600 L1500 760 L120 760 Z" fill="#090d12"/><path d="M720 760 q30-180 130-250 q100-70 220-60 q140 10 280 120 v190z" fill="#121722" opacity=".75"/><rect x="760" y="250" width="120" height="410" rx="60" fill="#1c2530"/><rect x="790" y="275" width="60" height="150" fill="#d96f7a" opacity=".42"/><circle cx="815" cy="330" r="140" fill="none" stroke="#d6b36a" stroke-width="6" opacity=".34"/><circle cx="815" cy="330" r="210" fill="none" stroke="#8dd6d7" stroke-width="3" opacity=".22"/>
  <rect x="40" y="40" width="1520" height="820" rx="18" fill="none" stroke="#d6b36a" stroke-opacity=".35" stroke-width="2"/>
</svg>